<svg width="17" height="17" viewBox="0 0 17 17" fill="none" xmlns="http://www.w3.org/2000/svg">
<path d="M0.5 4.5C0.5 2.29086 2.29086 0.5 4.5 0.5H12.5C14.7091 0.5 16.5 2.29086 16.5 4.5V12.5C16.5 14.7091 14.7091 16.5 12.5 16.5H4.5C2.29086 16.5 0.5 14.7091 0.5 12.5V4.5Z" fill="#9B2EFF"/>
<path d="M0.5 4.5C0.5 2.29086 2.29086 0.5 4.5 0.5H12.5C14.7091 0.5 16.5 2.29086 16.5 4.5V12.5C16.5 14.7091 14.7091 16.5 12.5 16.5H4.5C2.29086 16.5 0.5 14.7091 0.5 12.5V4.5Z" stroke="#6E1BDC"/>
<path fill-rule="evenodd" clip-rule="evenodd" d="M13.6455 5.03593C13.9019 5.30018 13.8955 5.72224 13.6312 5.97863L7.44723 11.9786C7.18861 12.2296 6.77741 12.2296 6.51878 11.9787L3.36945 8.92332C3.10519 8.66695 3.09879 8.24488 3.35517 7.98062C3.61154 7.71636 4.03361 7.70996 4.29787 7.96634L6.98297 10.5713L12.7028 5.02169C12.967 4.76531 13.3891 4.77168 13.6455 5.03593Z" fill="white"/>
</svg>
