<svg width="18" height="18" viewBox="0 0 18 18" fill="none" xmlns="http://www.w3.org/2000/svg">
<mask id="path-1-outside-1_1330_6001" maskUnits="userSpaceOnUse" x="0" y="0" width="18" height="18" fill="black">
<rect fill="white" width="18" height="18"/>
<path d="M1 5C1 2.79086 2.79086 1 5 1H13C15.2091 1 17 2.79086 17 5V13C17 15.2091 15.2091 17 13 17H5C2.79086 17 1 15.2091 1 13V5Z"/>
</mask>
<path d="M1 5C1 2.79086 2.79086 1 5 1H13C15.2091 1 17 2.79086 17 5V13C17 15.2091 15.2091 17 13 17H5C2.79086 17 1 15.2091 1 13V5Z" fill="#F2F4F7"/>
<path d="M5 1V2H13V1V0H5V1ZM17 5H16V13H17H18V5H17ZM13 17V16H5V17V18H13V17ZM1 13H2V5H1H0V13H1ZM5 17V16C3.34315 16 2 14.6569 2 13H1H0C0 15.7614 2.23858 18 5 18V17ZM17 13H16C16 14.6569 14.6569 16 13 16V17V18C15.7614 18 18 15.7614 18 13H17ZM13 1V2C14.6569 2 16 3.34315 16 5H17H18C18 2.23858 15.7614 0 13 0V1ZM5 1V0C2.23858 0 0 2.23858 0 5H1H2C2 3.34315 3.34315 2 5 2V1Z" fill="#E9EAED" mask="url(#path-1-outside-1_1330_6001)"/>
</svg>
