<svg width="21" height="21" viewBox="0 0 21 21" fill="none" xmlns="http://www.w3.org/2000/svg">
<path fill-rule="evenodd" clip-rule="evenodd" d="M13.6938 2.93994C13.7804 2.93994 14.0227 2.95025 14.2339 3.07666L18.8579 5.8208L18.8618 5.82275C18.9171 5.85707 18.9691 5.89721 19.0181 5.93994C19.1474 5.99609 19.26 6.08581 19.3413 6.20166C19.4312 6.33006 19.4806 6.4834 19.481 6.64014V16.9507C19.4801 17.1529 19.3986 17.3469 19.2554 17.4897C19.1475 17.597 19.0099 17.6697 18.8628 17.6987L18.7134 17.7134H2.28564C2.08263 17.7131 1.88727 17.6322 1.74365 17.4888C1.60014 17.3453 1.51944 17.1497 1.51904 16.9468V6.64014C1.51941 6.48334 1.56778 6.3301 1.65771 6.20166C1.73876 6.0862 1.85127 5.99711 1.97998 5.94092C2.02922 5.89777 2.08156 5.85732 2.13721 5.82275L2.14014 5.82178L2.14209 5.8208L6.58643 3.0835C6.80006 2.95126 7.04945 2.93994 7.13721 2.93994H13.6938ZM3.01904 16.2134H17.98V7.37451H3.01904V16.2134ZM11.2495 12.6304L12.9604 10.7485L13.1147 10.8892L14.0708 11.7563L10.5005 15.686L10.3442 15.5161L7.0708 11.9116L6.93018 11.7563L7.08447 11.6147L7.88428 10.8892L8.03955 10.7485L9.74951 12.6304V8.23877H11.2495V12.6304ZM4.9126 5.87451H16.0093L13.5903 4.43896H7.24365L4.9126 5.87451Z" fill="black"/>
</svg>
