<svg width="182" height="53" viewBox="0 0 182 53" fill="none" xmlns="http://www.w3.org/2000/svg">
<g clip-path="url(#clip0_181_945)">
<g clip-path="url(#clip1_181_945)">
<path d="M5.92272 8.56543L0.791016 15.4115V40.8441H22.4403V40.7094L30.1093 48.1771L38.812 39.7063L38.8349 39.6833C40.8374 37.5504 40.8831 34.1917 38.8349 32.1381C38.0935 31.3929 37.1478 30.8846 36.1176 30.6775C35.0873 30.4704 34.0189 30.5738 33.0474 30.9746V15.4115L27.9157 8.56543H5.92272ZM7.38892 11.5001H15.453V14.4347H5.18962L7.38892 11.5001ZM18.3854 11.5001H26.4495L28.6488 14.4347H18.3854V11.5001ZM3.72362 17.3687H30.115V33.253L28.9237 32.1411C28.4296 31.645 27.8425 31.2512 27.1962 30.9822C26.5499 30.7132 25.8569 30.5744 25.1569 30.5736C24.4569 30.5728 23.7636 30.71 23.1167 30.9775C22.4697 31.245 21.8818 31.6375 21.3865 32.1325V32.1354C19.8446 33.6799 19.4895 35.964 20.2611 37.9097H3.72362V17.3687ZM12.5208 20.3034C12.1319 20.3034 11.759 20.4579 11.484 20.7331C11.209 21.0083 11.0545 21.3815 11.0545 21.7707C11.0545 22.1598 11.209 22.533 11.484 22.8082C11.759 23.0834 12.1319 23.238 12.5208 23.238H21.318C21.7069 23.238 22.0799 23.0834 22.3549 22.8082C22.6299 22.533 22.7843 22.1598 22.7843 21.7707C22.7843 21.3815 22.6299 21.0083 22.3549 20.7331C22.0799 20.4579 21.7069 20.3034 21.318 20.3034H12.5208ZM25.1522 33.5081C25.4684 33.5052 25.7818 33.5665 26.0736 33.6881C26.3655 33.8097 26.6297 33.9892 26.8504 34.2157L26.8675 34.2329L30.1321 37.2848L33.0273 34.5424H33.0473V34.5224L33.3623 34.2243L33.3766 34.21C33.5985 33.9875 33.8621 33.8109 34.1522 33.6904C34.4424 33.57 34.7535 33.508 35.0676 33.508C35.3818 33.508 35.6928 33.57 35.983 33.6904C36.2732 33.8109 36.5367 33.9875 36.7586 34.21H36.7615C37.6804 35.1305 37.6962 36.6044 36.7013 37.6689L30.1092 44.0822L23.5228 37.6718V37.6689C22.5243 36.6045 22.5396 35.1318 23.4598 34.2101C23.6803 33.9852 23.9438 33.8072 24.2346 33.6866C24.5254 33.5659 24.8375 33.5052 25.1522 33.5081Z" fill="url(#paint0_linear_181_945)"/>
<path d="M5.13171 7.823L0 14.669V40.1017H21.6493V39.9669L29.3183 47.4347L38.021 38.9638L38.0439 38.9409C40.0464 36.808 40.0921 33.4493 38.0439 31.3956C37.3024 30.6505 36.3568 30.1422 35.3265 29.9351C34.2963 29.728 33.2279 29.8314 32.2564 30.2322V14.669L27.1247 7.823H5.13171ZM6.59791 10.7576H14.662V13.6923H4.39861L6.59791 10.7576ZM17.5944 10.7576H25.6585L27.8578 13.6923H17.5944V10.7576ZM2.9326 16.6263H29.3239V32.5106L28.1327 31.3987C27.6385 30.9025 27.0515 30.5087 26.4052 30.2398C25.7589 29.9708 25.0659 29.8319 24.3659 29.8311C23.6659 29.8303 22.9726 29.9676 22.3257 30.2351C21.6787 30.5026 21.0908 30.8951 20.5955 31.3901V31.3929C19.0536 32.9375 18.6985 35.2216 19.4701 37.1672H2.9326V16.6263ZM11.7298 19.5609C11.3409 19.5609 10.968 19.7155 10.693 19.9907C10.418 20.2659 10.2635 20.6391 10.2635 21.0282C10.2635 21.4174 10.418 21.7906 10.693 22.0658C10.968 22.341 11.3409 22.4956 11.7298 22.4956H20.527C20.9159 22.4956 21.2889 22.341 21.5639 22.0658C21.8388 21.7906 21.9933 21.4174 21.9933 21.0282C21.9933 20.6391 21.8388 20.2659 21.5639 19.9907C21.2889 19.7155 20.9159 19.5609 20.527 19.5609H11.7298ZM24.3612 32.7656C24.6773 32.7628 24.9908 32.824 25.2826 32.9457C25.5745 33.0673 25.8387 33.2468 26.0594 33.4733L26.0765 33.4905L29.3411 36.5424L32.2363 33.8H32.2563V33.7799L32.5713 33.4819L32.5856 33.4676C32.8075 33.2451 33.071 33.0685 33.3612 32.948C33.6514 32.8275 33.9624 32.7655 34.2766 32.7655C34.5908 32.7655 34.9018 32.8275 35.192 32.948C35.4821 33.0685 35.7457 33.2451 35.9676 33.4676H35.9705C36.8894 34.3881 36.9051 35.862 35.9103 36.9265L29.3182 43.3398L22.7318 36.9294V36.9265C21.7333 35.862 21.7486 34.3894 22.6688 33.4677C22.8893 33.2428 23.1528 33.0647 23.4436 32.9441C23.7343 32.8235 24.0464 32.7628 24.3612 32.7656Z" fill="url(#paint1_linear_181_945)"/>
</g>
<path d="M54.482 32.256C53.9487 32.256 53.49 32.128 53.106 31.872C52.722 31.5947 52.4127 31.168 52.178 30.592L47.538 18.752C47.346 18.24 47.282 17.792 47.346 17.408C47.4313 17.0027 47.634 16.6827 47.954 16.448C48.274 16.2133 48.7007 16.096 49.234 16.096C49.7033 16.096 50.0873 16.2133 50.386 16.448C50.6847 16.6613 50.9407 17.0773 51.154 17.696L55.026 28.352H54.29L58.29 17.44C58.4607 16.9707 58.6847 16.6293 58.962 16.416C59.2607 16.2027 59.6447 16.096 60.114 16.096C60.5833 16.096 60.9673 16.2133 61.266 16.448C61.5647 16.6613 61.7887 16.992 61.938 17.44L65.874 28.352H65.202L69.106 17.6C69.3193 17.024 69.586 16.6293 69.906 16.416C70.2473 16.2027 70.6207 16.096 71.026 16.096C71.538 16.096 71.9327 16.224 72.21 16.48C72.4873 16.736 72.6473 17.0667 72.69 17.472C72.7327 17.856 72.658 18.2827 72.466 18.752L67.858 30.592C67.6447 31.1467 67.3353 31.5627 66.93 31.84C66.546 32.1173 66.0873 32.256 65.554 32.256C65.0207 32.256 64.5513 32.1173 64.146 31.84C63.762 31.5627 63.4633 31.1467 63.25 30.592L59.058 19.488H60.882L56.786 30.56C56.5727 31.136 56.274 31.5627 55.89 31.84C55.506 32.1173 55.0367 32.256 54.482 32.256ZM77.6993 32.224C77.0593 32.224 76.5686 32.032 76.2273 31.648C75.8859 31.264 75.7153 30.7307 75.7153 30.048V18.304C75.7153 17.6 75.8859 17.0667 76.2273 16.704C76.5686 16.32 77.0593 16.128 77.6993 16.128C78.3393 16.128 78.8299 16.32 79.1713 16.704C79.5339 17.0667 79.7153 17.6 79.7153 18.304V30.048C79.7153 30.7307 79.5446 31.264 79.2033 31.648C78.8619 32.032 78.3606 32.224 77.6993 32.224ZM77.6993 13.152C76.9526 13.152 76.3659 12.9707 75.9393 12.608C75.5339 12.224 75.3313 11.7013 75.3313 11.04C75.3313 10.3573 75.5339 9.83467 75.9393 9.472C76.3659 9.10933 76.9526 8.928 77.6993 8.928C78.4673 8.928 79.0539 9.10933 79.4593 9.472C79.8646 9.83467 80.0673 10.3573 80.0673 11.04C80.0673 11.7013 79.8646 12.224 79.4593 12.608C79.0539 12.9707 78.4673 13.152 77.6993 13.152ZM85.8555 32.256C85.2155 32.256 84.7248 32.0853 84.3835 31.744C84.0422 31.3813 83.8715 30.8693 83.8715 30.208V18.112C83.8715 17.4507 84.0422 16.9493 84.3835 16.608C84.7248 16.2667 85.2048 16.096 85.8235 16.096C86.4422 16.096 86.9222 16.2667 87.2635 16.608C87.6048 16.9493 87.7755 17.4507 87.7755 18.112V20.288L87.4235 19.488C87.8928 18.3573 88.6182 17.504 89.5995 16.928C90.6022 16.3307 91.7328 16.032 92.9915 16.032C94.2502 16.032 95.2848 16.2667 96.0955 16.736C96.9062 17.2053 97.5142 17.92 97.9195 18.88C98.3248 19.8187 98.5275 21.0133 98.5275 22.464V30.208C98.5275 30.8693 98.3568 31.3813 98.0155 31.744C97.6742 32.0853 97.1835 32.256 96.5435 32.256C95.9035 32.256 95.4022 32.0853 95.0395 31.744C94.6982 31.3813 94.5275 30.8693 94.5275 30.208V22.656C94.5275 21.44 94.2928 20.5547 93.8235 20C93.3755 19.4453 92.6715 19.168 91.7115 19.168C90.5382 19.168 89.5995 19.5413 88.8955 20.288C88.2128 21.0133 87.8715 21.984 87.8715 23.2V30.208C87.8715 31.5733 87.1995 32.256 85.8555 32.256ZM108.318 32.32C107.401 32.32 106.43 32.224 105.406 32.032C104.382 31.84 103.465 31.5093 102.654 31.04C102.313 30.8267 102.068 30.5813 101.918 30.304C101.79 30.0053 101.737 29.7173 101.758 29.44C101.801 29.1413 101.908 28.8853 102.078 28.672C102.27 28.4587 102.505 28.32 102.782 28.256C103.081 28.192 103.401 28.2453 103.742 28.416C104.596 28.8213 105.396 29.1093 106.142 29.28C106.889 29.4293 107.625 29.504 108.35 29.504C109.374 29.504 110.132 29.3333 110.622 28.992C111.134 28.6293 111.39 28.16 111.39 27.584C111.39 27.0933 111.22 26.72 110.878 26.464C110.558 26.1867 110.068 25.984 109.406 25.856L106.206 25.248C104.884 24.992 103.87 24.512 103.166 23.808C102.484 23.0827 102.142 22.1547 102.142 21.024C102.142 20 102.42 19.1147 102.974 18.368C103.55 17.6213 104.34 17.0453 105.342 16.64C106.345 16.2347 107.497 16.032 108.798 16.032C109.737 16.032 110.612 16.1387 111.422 16.352C112.254 16.544 113.054 16.8533 113.822 17.28C114.142 17.4507 114.356 17.6747 114.462 17.952C114.59 18.2293 114.622 18.5173 114.558 18.816C114.494 19.0933 114.366 19.3493 114.174 19.584C113.982 19.7973 113.737 19.936 113.438 20C113.161 20.0427 112.841 19.9787 112.478 19.808C111.817 19.4667 111.177 19.2213 110.558 19.072C109.961 18.9227 109.385 18.848 108.83 18.848C107.785 18.848 107.006 19.0293 106.494 19.392C106.004 19.7547 105.758 20.2347 105.758 20.832C105.758 21.28 105.908 21.6533 106.206 21.952C106.505 22.2507 106.964 22.4533 107.582 22.56L110.782 23.168C112.169 23.424 113.214 23.8933 113.918 24.576C114.644 25.2587 115.006 26.176 115.006 27.328C115.006 28.8853 114.398 30.112 113.182 31.008C111.966 31.8827 110.345 32.32 108.318 32.32ZM125.227 32.32C123.84 32.32 122.678 32.0853 121.739 31.616C120.822 31.1467 120.139 30.464 119.691 29.568C119.243 28.6507 119.019 27.52 119.019 26.176V19.36H117.355C116.843 19.36 116.448 19.232 116.171 18.976C115.894 18.6987 115.755 18.3253 115.755 17.856C115.755 17.3653 115.894 16.992 116.171 16.736C116.448 16.48 116.843 16.352 117.355 16.352H119.019V13.44C119.019 12.7787 119.19 12.2773 119.531 11.936C119.894 11.5947 120.395 11.424 121.035 11.424C121.675 11.424 122.166 11.5947 122.507 11.936C122.848 12.2773 123.019 12.7787 123.019 13.44V16.352H126.411C126.923 16.352 127.318 16.48 127.595 16.736C127.872 16.992 128.011 17.3653 128.011 17.856C128.011 18.3253 127.872 18.6987 127.595 18.976C127.318 19.232 126.923 19.36 126.411 19.36H123.019V25.952C123.019 26.976 123.243 27.744 123.691 28.256C124.139 28.768 124.864 29.024 125.867 29.024C126.23 29.024 126.55 28.992 126.827 28.928C127.104 28.864 127.35 28.8213 127.563 28.8C127.819 28.7787 128.032 28.864 128.203 29.056C128.374 29.2267 128.459 29.5893 128.459 30.144C128.459 30.5707 128.384 30.9547 128.235 31.296C128.107 31.616 127.862 31.84 127.499 31.968C127.222 32.0533 126.859 32.128 126.411 32.192C125.963 32.2773 125.568 32.32 125.227 32.32ZM135.492 32.32C134.362 32.32 133.348 32.1067 132.452 31.68C131.578 31.232 130.884 30.6347 130.372 29.888C129.882 29.1413 129.636 28.2987 129.636 27.36C129.636 26.208 129.935 25.3013 130.532 24.64C131.13 23.9573 132.1 23.4667 133.444 23.168C134.788 22.8693 136.591 22.72 138.852 22.72H140.452V25.024H138.884C137.562 25.024 136.506 25.088 135.716 25.216C134.927 25.344 134.362 25.568 134.02 25.888C133.7 26.1867 133.54 26.6133 133.54 27.168C133.54 27.872 133.786 28.448 134.276 28.896C134.767 29.344 135.45 29.568 136.324 29.568C137.028 29.568 137.647 29.408 138.18 29.088C138.735 28.7467 139.172 28.288 139.492 27.712C139.812 27.136 139.972 26.4747 139.972 25.728V22.048C139.972 20.9813 139.738 20.2133 139.268 19.744C138.799 19.2747 138.01 19.04 136.9 19.04C136.282 19.04 135.61 19.1147 134.884 19.264C134.18 19.4133 133.434 19.6693 132.644 20.032C132.239 20.224 131.876 20.2773 131.556 20.192C131.258 20.1067 131.023 19.936 130.852 19.68C130.682 19.4027 130.596 19.104 130.596 18.784C130.596 18.464 130.682 18.1547 130.852 17.856C131.023 17.536 131.311 17.3013 131.716 17.152C132.698 16.7467 133.636 16.4587 134.532 16.288C135.45 16.1173 136.282 16.032 137.028 16.032C138.564 16.032 139.823 16.2667 140.804 16.736C141.807 17.2053 142.554 17.92 143.044 18.88C143.535 19.8187 143.78 21.0347 143.78 22.528V30.208C143.78 30.8693 143.62 31.3813 143.3 31.744C142.98 32.0853 142.522 32.256 141.924 32.256C141.327 32.256 140.858 32.0853 140.516 31.744C140.196 31.3813 140.036 30.8693 140.036 30.208V28.672H140.292C140.143 29.4187 139.844 30.0693 139.396 30.624C138.97 31.1573 138.426 31.5733 137.764 31.872C137.103 32.1707 136.346 32.32 135.492 32.32ZM153.184 32.32C151.414 32.32 150.08 31.8187 149.184 30.816C148.288 29.792 147.84 28.2987 147.84 26.336V11.2C147.84 10.5387 148.011 10.0373 148.352 9.696C148.694 9.35467 149.184 9.184 149.824 9.184C150.464 9.184 150.955 9.35467 151.296 9.696C151.659 10.0373 151.84 10.5387 151.84 11.2V26.144C151.84 27.1253 152.043 27.8507 152.448 28.32C152.875 28.7893 153.472 29.024 154.24 29.024C154.411 29.024 154.571 29.024 154.72 29.024C154.87 29.0027 155.019 28.9813 155.168 28.96C155.467 28.9173 155.67 29.0027 155.776 29.216C155.883 29.408 155.936 29.8133 155.936 30.432C155.936 30.9653 155.83 31.3813 155.616 31.68C155.403 31.9787 155.051 32.16 154.56 32.224C154.347 32.2453 154.123 32.2667 153.888 32.288C153.654 32.3093 153.419 32.32 153.184 32.32ZM163.403 32.32C161.632 32.32 160.299 31.8187 159.403 30.816C158.507 29.792 158.059 28.2987 158.059 26.336V11.2C158.059 10.5387 158.23 10.0373 158.571 9.696C158.912 9.35467 159.403 9.184 160.043 9.184C160.683 9.184 161.174 9.35467 161.515 9.696C161.878 10.0373 162.059 10.5387 162.059 11.2V26.144C162.059 27.1253 162.262 27.8507 162.667 28.32C163.094 28.7893 163.691 29.024 164.459 29.024C164.63 29.024 164.79 29.024 164.939 29.024C165.088 29.0027 165.238 28.9813 165.387 28.96C165.686 28.9173 165.888 29.0027 165.995 29.216C166.102 29.408 166.155 29.8133 166.155 30.432C166.155 30.9653 166.048 31.3813 165.835 31.68C165.622 31.9787 165.27 32.16 164.779 32.224C164.566 32.2453 164.342 32.2667 164.107 32.288C163.872 32.3093 163.638 32.32 163.403 32.32Z" fill="url(#paint2_linear_181_945)"/>
<path d="M53.996 45.7184C53.484 45.7184 53.04 45.5904 52.664 45.3344C52.288 45.0704 52.036 44.7224 51.908 44.2904L52.04 44.0744V45.0824C52.04 45.2744 51.988 45.4264 51.884 45.5384C51.78 45.6424 51.636 45.6944 51.452 45.6944C51.26 45.6944 51.112 45.6424 51.008 45.5384C50.904 45.4264 50.852 45.2744 50.852 45.0824V37.6784C50.852 37.4784 50.904 37.3264 51.008 37.2224C51.112 37.1184 51.26 37.0664 51.452 37.0664C51.644 37.0664 51.792 37.1184 51.896 37.2224C52.008 37.3264 52.064 37.4784 52.064 37.6784V41.0384H51.92C52.048 40.6144 52.3 40.2784 52.676 40.0304C53.052 39.7744 53.492 39.6464 53.996 39.6464C54.524 39.6464 54.98 39.7704 55.364 40.0184C55.748 40.2664 56.044 40.6144 56.252 41.0624C56.468 41.5104 56.576 42.0504 56.576 42.6824C56.576 43.2984 56.468 43.8384 56.252 44.3024C56.044 44.7584 55.744 45.1104 55.352 45.3584C54.968 45.5984 54.516 45.7184 53.996 45.7184ZM53.696 44.7824C54.032 44.7824 54.324 44.7024 54.572 44.5424C54.82 44.3824 55.012 44.1464 55.148 43.8344C55.284 43.5224 55.352 43.1384 55.352 42.6824C55.352 41.9944 55.2 41.4744 54.896 41.1224C54.6 40.7704 54.2 40.5944 53.696 40.5944C53.368 40.5944 53.076 40.6744 52.82 40.8344C52.572 40.9864 52.38 41.2184 52.244 41.5304C52.108 41.8424 52.04 42.2264 52.04 42.6824C52.04 43.3624 52.192 43.8824 52.496 44.2424C52.8 44.6024 53.2 44.7824 53.696 44.7824ZM59.2164 47.8544C59.0724 47.8544 58.9524 47.8144 58.8564 47.7344C58.7684 47.6624 58.7164 47.5624 58.7004 47.4344C58.6924 47.3144 58.7164 47.1824 58.7724 47.0384L59.5884 45.2024V45.7184L57.3444 40.4984C57.2884 40.3544 57.2684 40.2184 57.2844 40.0904C57.3004 39.9624 57.3604 39.8624 57.4644 39.7904C57.5684 39.7104 57.7084 39.6704 57.8844 39.6704C58.0364 39.6704 58.1564 39.7064 58.2444 39.7784C58.3324 39.8504 58.4124 39.9744 58.4844 40.1504L60.2964 44.6264H59.9604L61.7964 40.1504C61.8684 39.9664 61.9524 39.8424 62.0484 39.7784C62.1444 39.7064 62.2764 39.6704 62.4444 39.6704C62.5884 39.6704 62.7004 39.7104 62.7804 39.7904C62.8684 39.8624 62.9204 39.9624 62.9364 40.0904C62.9604 40.2104 62.9404 40.3424 62.8764 40.4864L59.8764 47.3864C59.7964 47.5704 59.7044 47.6944 59.6004 47.7584C59.5044 47.8224 59.3764 47.8544 59.2164 47.8544Z" fill="#1F1F21"/>
<path d="M76.6413 41.4461C76.7763 42.2843 76.9635 43.4475 78.5674 44.1999C80.7203 45.2261 80.8031 46.7385 80.0578 47.2246C79.3126 47.7108 78.7054 46.9816 77.8774 45.4962C77.3253 44.524 75.2553 43.1736 73.5164 45.2531C73.3579 45.4955 73.203 45.7483 73.0439 46.0077C72.7598 46.4711 72.4626 46.9559 72.1088 47.4407C71.1979 48.71 68.8242 49.8443 67.0854 48.2509C64.8773 46.2254 66.699 43.7408 66.837 43.5787C67.389 42.8766 68.1342 42.3634 68.9898 42.0393C69.8455 41.6883 71.9432 41.4992 73.7372 42.1474C75.2001 42.4444 74.6481 41.0941 73.8476 40.473C73.4597 40.1817 72.8594 40 72.2319 39.8101C70.9396 39.419 69.5318 38.9929 69.6247 37.5022C69.7351 35.9358 71.1151 35.5848 71.9156 35.6118C72.2468 35.6118 75.0897 35.9628 76.5249 40.8781C76.5756 41.0378 76.6067 41.2313 76.6413 41.4461Z" fill="#156EC5"/>
<path d="M78.2358 43.0385C78.2634 43.1195 78.2634 43.1465 78.2634 43.1465C78.291 42.9845 78.5946 42.1202 79.9471 41.7692C80.8027 41.5531 81.2995 41.283 81.0787 40.6889C81.0787 40.6619 81.0511 40.6079 81.0235 40.5809C80.5543 39.9057 79.6435 39.7437 78.9534 40.1758C77.9322 40.8239 78.0702 42.3633 78.2358 43.0385Z" fill="#156EC5"/>
<path d="M93.9663 39.4541C94.7391 39.4541 95.4825 39.8031 95.9878 40.3848C96.4928 40.9953 96.7309 41.7512 96.731 42.5361C96.731 43.1468 96.5823 43.758 96.2554 44.3105C95.9582 44.8631 95.512 45.3285 94.9771 45.6484C94.4718 45.9392 93.8771 46.1133 93.2827 46.1133C92.8964 46.1133 92.51 46.026 92.1831 45.8516C91.8265 45.648 91.5591 45.3863 91.3511 45.0664L90.9048 47.6553L89.3296 48.2656C89.3296 48.2656 90.1024 42.7429 90.1919 42.2461C90.3108 41.5772 90.6378 40.9368 91.1431 40.4424C91.9158 39.7446 92.9262 39.396 93.9663 39.4541ZM138.162 39.3955C138.934 39.3957 139.707 39.7441 140.182 40.3545C140.687 40.9652 140.925 41.7216 140.925 42.5068C140.925 43.1175 140.777 43.7287 140.45 44.2812C140.152 44.8046 139.706 45.27 139.171 45.5898C138.666 45.8805 138.072 46.0546 137.478 46.0547C137.092 46.0547 136.704 45.9675 136.377 45.793C136.021 45.5894 135.753 45.3276 135.545 45.0078L135.1 47.5957L133.525 48.207C133.525 48.207 134.297 42.6809 134.386 42.1865C134.505 41.5178 134.832 40.8781 135.337 40.3838C136.11 39.6858 137.121 39.3373 138.162 39.3955ZM130.048 39.4531C130.613 39.424 131.148 39.5703 131.624 39.832C132.099 40.0937 132.485 40.4714 132.723 40.9365C132.991 41.4309 133.11 41.9836 133.11 42.5361C133.14 43.4958 132.753 44.3975 132.04 45.0664C131.326 45.7642 130.375 46.1424 129.365 46.1133C128.562 46.1714 127.76 45.8513 127.166 45.2988C126.601 44.7172 126.304 43.9316 126.333 43.1465C126.304 41.1402 127.968 39.4823 130.048 39.4531ZM104.458 39.4541C105.527 39.4541 106.538 39.9484 107.221 40.7627C107.697 41.4315 107.875 42.2452 107.756 43.0303C107.727 43.4665 107.251 46.0264 107.251 46.0264H105.676L105.765 45.2695C105.468 45.5602 105.141 45.764 104.785 45.9385C104.458 46.0548 104.131 46.1133 103.774 46.1133C102.971 46.1424 102.228 45.7933 101.723 45.1826C101.218 44.5719 100.951 43.8155 100.951 43.0303C100.951 42.4197 101.099 41.8093 101.426 41.2568C101.723 40.7043 102.199 40.2388 102.734 39.9189C103.269 39.6282 103.863 39.4832 104.458 39.4541ZM117.267 40.3838C117.772 39.8894 118.456 39.5985 119.169 39.5693C119.675 39.5403 120.181 39.7442 120.567 40.1514C120.923 40.5003 121.101 40.9657 121.101 41.46C121.101 41.8089 121.072 42.1874 121.012 42.5654L120.507 46.1133H118.932L119.408 42.6523C119.437 42.3906 119.467 42.0996 119.467 41.8379C119.467 41.6344 119.377 41.4022 119.229 41.2568C119.051 41.1114 118.843 41.0527 118.605 41.0527C118.308 41.0527 118.04 41.14 117.802 41.3145C117.505 41.5179 117.297 41.7796 117.178 42.0703C116.97 42.6519 116.851 43.2633 116.792 43.874L116.465 46.1133H114.89L116.108 37.3018H117.683L117.267 40.3838ZM86.4751 39.4248C87.0992 39.4539 87.7239 39.5996 88.2886 39.8613C88.6155 40.0067 88.8833 40.181 89.0913 40.3555L88.4077 41.4316C88.1997 41.2863 87.9618 41.1407 87.7241 41.0244C87.3377 40.8499 86.8916 40.7629 86.4458 40.792C86.327 40.792 86.2082 40.8501 86.0894 40.9082C86.0002 40.9664 85.9409 41.0536 85.9409 41.1699C85.941 41.2862 85.9997 41.3737 86.0591 41.4609C86.267 41.6644 86.5051 41.8673 86.7427 42.0127C87.2182 42.3035 87.6345 42.682 87.9614 43.1182C88.1695 43.409 88.2593 43.7584 88.2593 44.1074C88.2591 44.6015 88.021 45.0955 87.6646 45.4443C87.2188 45.9095 86.5947 46.143 85.9409 46.085C85.4654 46.085 84.9893 45.997 84.5435 45.8516C84.0384 45.6771 83.5923 45.387 83.1763 45.0381L84.0981 43.9619C84.6628 44.398 85.3166 44.6301 86.0298 44.6592C86.2081 44.6592 86.3861 44.63 86.5347 44.5137C86.6536 44.4264 86.7134 44.2811 86.7134 44.1357C86.7133 43.9906 86.654 43.8743 86.5649 43.7871C86.3272 43.5545 86.059 43.3512 85.7915 43.1768C85.4052 42.9441 85.0789 42.6526 84.7817 42.3037C84.544 42.0129 84.395 41.6347 84.395 41.2275C84.3951 40.7042 84.603 40.2388 85.019 39.9189C85.435 39.5992 85.9403 39.4249 86.4751 39.4248ZM111.74 39.4248C112.364 39.4539 112.989 39.5996 113.553 39.8613C113.85 40.0067 114.148 40.181 114.356 40.3555L113.672 41.4316C113.464 41.2863 113.226 41.1407 112.989 41.0244C112.602 40.8499 112.156 40.7629 111.71 40.792C111.592 40.792 111.473 40.8501 111.354 40.9082C111.265 40.9664 111.206 41.0536 111.206 41.1699C111.206 41.2862 111.264 41.3737 111.324 41.4609C111.532 41.6644 111.77 41.8673 112.007 42.0127C112.483 42.3035 112.899 42.682 113.226 43.1182C113.434 43.409 113.523 43.7584 113.523 44.1074C113.523 44.6015 113.286 45.0955 112.929 45.4443C112.483 45.9095 111.859 46.143 111.206 46.085C110.73 46.085 110.254 45.997 109.808 45.8516C109.303 45.6771 108.857 45.387 108.441 45.0381L109.363 43.9619C109.927 44.3979 110.581 44.6301 111.294 44.6592C111.473 44.6592 111.651 44.63 111.799 44.5137C111.918 44.4264 111.978 44.2811 111.978 44.1357C111.978 43.9906 111.919 43.8743 111.83 43.7871C111.592 43.5545 111.324 43.3512 111.056 43.1768C110.67 42.9441 110.344 42.6526 110.046 42.3037C109.809 42.0129 109.66 41.6347 109.66 41.2275C109.66 40.7042 109.868 40.2388 110.284 39.9189C110.7 39.5992 111.205 39.4249 111.74 39.4248ZM124.876 39.7158H125.887L125.708 41.0537H124.698L124.014 46.085H122.41L123.123 41.0537H122.469L122.647 39.7158H123.272L123.628 37.3604H125.204L124.876 39.7158ZM99.0786 46.084H97.5034L98.6919 37.2725H100.297L99.0786 46.084ZM93.5503 40.8506C93.1937 40.8506 92.8367 40.9379 92.5396 41.1123C92.2426 41.3158 91.9752 41.6062 91.8267 41.9258C91.6186 42.2457 91.5298 42.6532 91.5298 43.0312C91.5298 43.4674 91.6779 43.9037 91.9751 44.2236C92.2723 44.5435 92.6885 44.7175 93.1343 44.6885C93.6693 44.6885 94.2044 44.4853 94.561 44.0781C94.9474 43.6419 95.1552 43.0894 95.1255 42.5078C95.1552 42.0716 94.9773 41.6353 94.6802 41.3154C94.383 40.9955 93.9664 40.8506 93.5503 40.8506ZM129.959 40.9365C129.395 40.9075 128.831 41.1697 128.474 41.6348C128.117 42.071 127.939 42.5947 127.939 43.1182C127.909 43.5252 128.058 43.9321 128.355 44.252C128.652 44.5427 129.068 44.7174 129.484 44.6885C130.078 44.7176 130.673 44.4848 131.03 44.0195C131.357 43.5833 131.535 43.0594 131.565 42.5068C131.595 42.0998 131.416 41.6638 131.119 41.373C130.821 41.0823 130.376 40.9074 129.959 40.9365ZM104.486 40.8203C103.921 40.8204 103.386 41.0237 103.03 41.4307C102.614 41.8377 102.405 42.4195 102.435 43.001C102.405 43.4372 102.584 43.8735 102.881 44.1934C103.179 44.5133 103.595 44.6883 104.041 44.6592C104.427 44.6591 104.783 44.5719 105.081 44.3975C105.408 44.1939 105.645 43.9029 105.824 43.583C106.002 43.2341 106.121 42.8558 106.121 42.5068C106.15 42.0416 105.972 41.605 105.675 41.2852C105.348 40.9653 104.932 40.7912 104.486 40.8203ZM137.775 40.791C137.418 40.791 137.061 40.8783 136.764 41.0527C136.467 41.2563 136.2 41.5473 136.051 41.8672C135.843 42.1871 135.753 42.5946 135.753 42.9727C135.754 43.4087 135.903 43.8452 136.2 44.165C136.497 44.4847 136.913 44.659 137.359 44.6299C137.894 44.6298 138.429 44.4266 138.786 44.0195C139.172 43.5834 139.38 43.0307 139.35 42.4492C139.38 42.013 139.201 41.5767 138.904 41.2568C138.607 40.937 138.191 40.7911 137.775 40.791Z" fill="#1F1F21"/>
<path d="M142.263 37.2725C142.458 37.2725 142.646 37.3502 142.784 37.4883C142.922 37.6264 142.999 37.8136 142.999 38.0088C142.999 38.1544 142.956 38.2969 142.875 38.418C142.794 38.539 142.679 38.6337 142.545 38.6895C142.41 38.7452 142.262 38.7599 142.119 38.7314C141.976 38.703 141.845 38.6322 141.742 38.5293C141.639 38.4263 141.569 38.2951 141.541 38.1523C141.513 38.0095 141.527 37.8611 141.583 37.7266C141.639 37.5923 141.733 37.4773 141.853 37.3965C141.974 37.3156 142.117 37.2725 142.263 37.2725ZM142.263 37.4014C142.184 37.4014 142.106 37.4175 142.033 37.4482C141.961 37.479 141.895 37.5235 141.84 37.5801C141.785 37.6366 141.742 37.7039 141.714 37.7773C141.685 37.851 141.671 37.9299 141.674 38.0088C141.674 38.165 141.736 38.3153 141.847 38.4258C141.957 38.536 142.107 38.5976 142.263 38.5977C142.342 38.6001 142.42 38.5871 142.494 38.5586C142.568 38.5301 142.635 38.4866 142.691 38.4316C142.748 38.3767 142.793 38.3109 142.824 38.2383C142.855 38.1657 142.871 38.0876 142.871 38.0088C142.871 37.8477 142.806 37.693 142.692 37.5791C142.578 37.4653 142.424 37.4014 142.263 37.4014ZM142.483 37.6221L142.558 37.6777L142.612 37.751V37.8252C142.616 37.869 142.61 37.9133 142.594 37.9541L142.502 38.0273H142.558C142.558 38.0458 142.558 38.0646 142.576 38.083C142.594 38.101 142.594 38.1014 142.594 38.1377C142.6 38.1452 142.606 38.1546 142.609 38.1641C142.612 38.1734 142.613 38.1835 142.612 38.1934V38.2852C142.612 38.3036 142.631 38.3224 142.631 38.3408C142.632 38.3548 142.639 38.3676 142.649 38.377H142.465C142.468 38.3453 142.462 38.3133 142.447 38.2852V38.1934C142.449 38.1762 142.446 38.1586 142.439 38.1426C142.433 38.1268 142.423 38.1129 142.41 38.1016L142.318 38.0645H142.152V38.4141H141.968V37.6221H142.483ZM142.152 37.7334V37.9541H142.336L142.429 37.917C142.447 37.8987 142.447 37.8801 142.447 37.8252C142.447 37.7703 142.447 37.7517 142.429 37.7334H142.152Z" fill="#1D252C"/>
</g>
<defs>
<linearGradient id="paint0_linear_181_945" x1="20.5725" y1="8.56543" x2="20.5725" y2="48.1771" gradientUnits="userSpaceOnUse">
<stop stop-color="#E334AC"/>
<stop offset="0.97" stop-color="#6E1BDC"/>
<stop offset="1" stop-color="#6F2B36"/>
</linearGradient>
<linearGradient id="paint1_linear_181_945" x1="19.7815" y1="7.823" x2="19.7815" y2="47.4347" gradientUnits="userSpaceOnUse">
<stop stop-color="#6D1CDD"/>
<stop offset="1" stop-color="#FC3AA2"/>
</linearGradient>
<linearGradient id="paint2_linear_181_945" x1="106.354" y1="5" x2="106.354" y2="37" gradientUnits="userSpaceOnUse">
<stop stop-color="#6D1CDD"/>
<stop offset="1" stop-color="#FC3AA2"/>
</linearGradient>
<clipPath id="clip0_181_945">
<rect width="182" height="52.6104" fill="white"/>
</clipPath>
<clipPath id="clip1_181_945">
<rect width="40.3542" height="40.3542" fill="white" transform="translate(0 7.823)"/>
</clipPath>
</defs>
</svg>
