<svg width="47" height="22" viewBox="0 0 47 22" fill="none" xmlns="http://www.w3.org/2000/svg">
<rect width="47" height="22" rx="11" fill="url(#paint0_linear_236_6546)"/>
<path d="M7.918 15.612C7.64733 15.612 7.43733 15.5373 7.288 15.388C7.148 15.2387 7.078 15.024 7.078 14.744V6.414C7.078 6.12467 7.148 5.90533 7.288 5.756C7.43733 5.59733 7.62867 5.518 7.862 5.518C8.07667 5.518 8.23533 5.56 8.338 5.644C8.45 5.71867 8.58067 5.84933 8.73 6.036L14.092 12.994H13.728V6.372C13.728 6.10133 13.798 5.89133 13.938 5.742C14.0873 5.59267 14.2973 5.518 14.568 5.518C14.8387 5.518 15.044 5.59267 15.184 5.742C15.324 5.89133 15.394 6.10133 15.394 6.372V14.772C15.394 15.0333 15.3287 15.2387 15.198 15.388C15.0673 15.5373 14.89 15.612 14.666 15.612C14.4513 15.612 14.2787 15.57 14.148 15.486C14.0267 15.402 13.8913 15.2667 13.742 15.08L8.394 8.122H8.744V14.744C8.744 15.024 8.674 15.2387 8.534 15.388C8.394 15.5373 8.18867 15.612 7.918 15.612ZM18.5027 15.5C18.1947 15.5 17.9567 15.4207 17.7887 15.262C17.63 15.094 17.5507 14.856 17.5507 14.548V6.582C17.5507 6.274 17.63 6.04067 17.7887 5.882C17.9567 5.714 18.1947 5.63 18.5027 5.63H23.5007C23.734 5.63 23.9113 5.69067 24.0327 5.812C24.1633 5.93333 24.2287 6.106 24.2287 6.33C24.2287 6.56333 24.1633 6.74533 24.0327 6.876C23.9113 6.99733 23.734 7.058 23.5007 7.058H19.2727V9.774H23.1927C23.4353 9.774 23.6173 9.83467 23.7387 9.956C23.86 10.0773 23.9207 10.2547 23.9207 10.488C23.9207 10.7213 23.86 10.8987 23.7387 11.02C23.6173 11.1413 23.4353 11.202 23.1927 11.202H19.2727V14.072H23.5007C23.734 14.072 23.9113 14.1327 24.0327 14.254C24.1633 14.3753 24.2287 14.5527 24.2287 14.786C24.2287 15.0193 24.1633 15.1967 24.0327 15.318C23.9113 15.4393 23.734 15.5 23.5007 15.5H18.5027ZM29.3352 15.612C29.0832 15.612 28.8778 15.5513 28.7192 15.43C28.5698 15.3087 28.4485 15.1173 28.3552 14.856L25.4292 6.582C25.3265 6.28333 25.3452 6.03133 25.4852 5.826C25.6345 5.62067 25.8818 5.518 26.2272 5.518C26.4792 5.518 26.6752 5.57867 26.8152 5.7C26.9552 5.812 27.0672 5.994 27.1512 6.246L29.6712 13.722H29.1112L31.7432 6.26C31.8365 6.008 31.9532 5.82133 32.0932 5.7C32.2332 5.57867 32.4152 5.518 32.6392 5.518C32.8632 5.518 33.0405 5.57867 33.1712 5.7C33.3018 5.82133 33.4138 6.01267 33.5072 6.274L36.0552 13.722H35.5652L38.1272 6.246C38.2112 6.00333 38.3232 5.82133 38.4632 5.7C38.6032 5.57867 38.7945 5.518 39.0372 5.518C39.3358 5.518 39.5552 5.62067 39.6952 5.826C39.8352 6.03133 39.8538 6.28333 39.7512 6.582L36.7972 14.87C36.7038 15.122 36.5825 15.3087 36.4332 15.43C36.2838 15.5513 36.0832 15.612 35.8312 15.612C35.5792 15.612 35.3785 15.5513 35.2292 15.43C35.0798 15.3087 34.9585 15.1173 34.8652 14.856L32.4292 7.912H32.7512L30.2872 14.87C30.1938 15.122 30.0725 15.3087 29.9232 15.43C29.7832 15.5513 29.5872 15.612 29.3352 15.612Z" fill="white"/>
<defs>
<linearGradient id="paint0_linear_236_6546" x1="-0.340024" y1="3.5" x2="48.0632" y2="20.2139" gradientUnits="userSpaceOnUse">
<stop stop-color="#6D1CDD"/>
<stop offset="1" stop-color="#FC3AA2"/>
</linearGradient>
</defs>
</svg>
